<?xml version="1.0" encoding="utf-8"?>
<svg version="1.1" xmlns="http://www.w3.org/2000/svg" xmlns:xlink="http://www.w3.org/1999/xlink" x="0px" y="0px"
	 viewBox="0 0 408 81" style="enable-background:new 0 0 408 81;" xml:space="preserve">
<style type="text/css">
	.st0{fill:#231815;}
	.st1{fill:#541B85;}
	.st2{fill:#FFFFFF;}
</style>
<g id="text--en">
	<g>
		<path class="st0" d="M407,52.8h-4.1c0,0-5.8,7.3-6.1,7.8c-0.4-0.5-6.1-7.8-6.1-7.8h-3.4H387h-1h-18.6v3.5c0,0,7.5,0,8,0
			c0,0.5,0,20.2,0,20.2h3.8c0,0,0-19.7,0-20.2c0.5,0,8,0,8,0v-1.9c2.4,3.1,7.5,9.6,7.6,9.7c0,0.2,0,12.4,0,12.4h3.8
			c0,0,0-12.2,0-12.4c0.1-0.1,8.9-11.3,8.9-11.3H407z"/>
		<polygon class="st0" points="361.2,52.8 361.2,76.4 365,76.4 365,52.8 364.8,52.8 		"/>
		<path class="st0" d="M352,62.5c-2.1-1.2-3.9-2.2-3.9-4c0-1.5,1.4-2.5,3.4-2.5c1.8,0,3.6,0.8,5.2,2.3l0.5,0.4v-4.5l-0.1-0.1
			c-1.7-1.1-3.5-1.7-5.3-1.7c-4.4,0-7.3,2.5-7.3,6.5c0,3.5,3,5.4,5.7,7c2.2,1.3,4.3,2.6,4.3,4.7c0,1-0.9,2.7-3.5,2.7
			c-2.2,0-4.2-1.1-5.9-3.2l-0.5-0.6v5.1l0.1,0.1c2,1.5,4.1,2.2,6.6,2.2c3.9,0,6.7-2.7,6.7-6.5C358,65.9,354.8,64.1,352,62.5z"/>
		<path class="st0" d="M341.1,71.4l-0.1-0.1c-1.9-2.7-3.4-4.7-5.6-6.1c2.7-1.1,4.2-3.1,4.2-5.7c0-4.2-3.5-6.7-9-6.7h-6.7h-0.3v23.7
			h4.3c0,0,0-9.5,0-10c0.4,0,1.4,0,1.4,0c1.8,0,3.3,0.4,6.8,5.2l3.6,4.9h5.3l-0.7-0.9C342.8,73.7,342.1,72.9,341.1,71.4z
			 M335.2,59.5c0,0.9-0.3,1.6-0.8,2.1c-0.8,0.8-2.2,1.3-4.2,1.3c0,0-1.8,0-2.2,0c0-0.5,0-6.3,0-6.7c0.4,0,2.2,0,2.2,0
			C333.5,56.2,335.1,57.2,335.2,59.5C335.2,59.4,335.2,59.4,335.2,59.5z"/>
		<path class="st0" d="M309.8,66.3c0.5,0,9.5,0,9.5,0v-3.5c0,0-9,0-9.5,0c0-0.5,0-6,0-6.5c0.5,0,9.8,0,9.8,0v-3.5h-0.3h-13.4v23.7
			h14v-3.5c0,0-9.6,0-10.1,0C309.8,72.5,309.8,66.7,309.8,66.3z"/>
		<path class="st0" d="M300.5,52.8c0,0-6.3,14.8-6.8,15.8c-0.5-1.1-6.8-15.8-6.8-15.8h-3.9l10.2,23.9h1l10-23.9h-0.4H300.5z"/>
		<polygon class="st0" points="277.3,52.8 277.3,76.4 281.2,76.4 281.2,52.8 280.9,52.8 		"/>
		<path class="st0" d="M269.4,52.8c0,0,0,16.2,0,17.5c-0.9-1-15.3-17.5-15.3-17.5h-3v23.7h3.6c0,0,0-16.1,0-17.4
			c0.9,1,15.1,17.4,15.1,17.4h3.2V52.8h-0.3H269.4z"/>
		<path class="st0" d="M243.8,52.8v13.7c0,1.8-0.2,3.6-1.4,4.9c-0.7,0.7-2.2,1.8-5.2,1.8c-1.9,0-3.5-0.6-4.8-1.9
			c-1-1-1.3-2.1-1.3-4.6V52.8h-3.9v14.6c0,6.9,5.3,9.3,9.9,9.3c6.7,0,10.5-3.5,10.5-9.7V52.8h-0.3H243.8z"/>
		<path class="st0" d="M202,52.4c-7.2,0-12.7,5.2-12.7,12.2c0,6.9,5.4,12.1,12.6,12.1c8.4,0,12.8-6.1,12.8-12.1
			C214.8,57.6,209.4,52.4,202,52.4z M202,73.2c-5,0-8.7-3.7-8.7-8.6c0-5,3.7-8.6,8.7-8.6c5.1,0,8.8,3.6,8.8,8.6
			C210.8,69.6,207.1,73.2,202,73.2z"/>
		<path class="st0" d="M190.8,52.8h-4.1c0,0-5.8,7.3-6.1,7.8c-0.4-0.5-6.1-7.8-6.1-7.8h-3.7h-0.6h-0.4h-3.9c0,0-8.5,9.2-9.4,10.2
			c0-1.2,0-10.2,0-10.2h-3.9v23.6c-0.8-0.7-12.5-12.1-12.8-12.4c0.3-0.4,10.3-11.2,10.3-11.2h-0.6h-4.3c0,0-8.5,9.2-9.4,10.2
			c0-1.2,0-10.2,0-10.2h-3.8v23.7h3.8c0,0,0-10,0-11.1c0.8,0.8,11.4,11.1,11.4,11.1h5.3h0h3.8c0,0,0-10,0-11.1
			c0.8,0.8,11.4,11.1,11.4,11.1h5.3c0,0-12.5-12.1-12.9-12.5c0.3-0.3,7.7-8.4,9.8-10.6c1.8,2.3,8.3,10.5,8.4,10.6
			c0,0.2,0,12.4,0,12.4h3.9c0,0,0-12.2,0-12.4c0.1-0.1,8.9-11.3,8.9-11.3H190.8z"/>
		<polygon class="st0" points="123.1,52.8 123.1,76.4 127.3,76.4 127.3,52.8 127,52.8 		"/>
		<path class="st0" d="M118.7,71.4l-0.1-0.1c-1.9-2.7-3.4-4.7-5.6-6.1c2.7-1.1,4.2-3.1,4.2-5.7c0-4.2-3.4-6.7-9-6.7h-6.7h-0.3v23.7
			h4.4c0,0,0-9.5,0-10c0.4,0,1.3,0,1.3,0c1.8,0,3.3,0.4,6.9,5.2l3.6,4.9h5.3l-0.7-0.8C120.4,73.7,119.7,72.9,118.7,71.4z
			 M112.8,59.5c0,0.9-0.3,1.6-0.8,2.1c-0.8,0.8-2.2,1.3-4.2,1.3c0,0-1.8,0-2.2,0c0-0.5,0-6.3,0-6.7c0.4,0,2.2,0,2.2,0
			C111.1,56.2,112.7,57.2,112.8,59.5C112.8,59.4,112.8,59.4,112.8,59.5z"/>
	</g>
</g>
<g id="text--ja">
	<g>
		<path class="st0" d="M273.4,32.9V29h-17.5v-0.8c4.8-0.7,10.8-6.2,10.7-11v0h-26.6v3.7h20c-2.1,2.3-5.4,4.2-8.5,4.4V29h-18.9v3.9
			h18.9v7.6h-8.3v4.2h8.5c2.1,0,4.2-1.8,4.2-4.2l0,0v-7.6H273.4z"/>
		<path class="st0" d="M237.2,14.3h31.1v7.7h4.2V10.3h-7.7c1.4-1.9,2.8-4.4,3.5-6h-4.9c-0.7,1.6-2.1,4.2-3.5,6h-3.4
			c-0.5-2.1-1.9-5.4-2.4-6h-5c0.6,0.6,1.9,3.9,2.4,6h-5.8c-0.7-2.1-2.4-5.4-3-6h-5c0.6,0.6,2.3,3.9,3,6H233v11.6h4.2V14.3z"/>
	</g>
	<path class="st0" d="M209.2,24.8c-3.2,9.8-9.1,16.4-19.5,20v-5.6c9-2.8,15.1-11.7,16.6-20.6h-17.2v-4.6h17.6V4.2h5v9.6h17.6v4.6
		h-17.2c1.5,8.9,7.7,17.9,16.6,20.6v5.6C218.4,41.2,212.4,34.5,209.2,24.8"/>
	<g>
		<path class="st0" d="M166.7,30c-1,0.3-4.3,0.7-8.1,1.1v-0.4c1-0.5,5.2-4.8,5.2-4.8v-3.4h-7.2c1.2-1,2.3-2,3.4-3.1h6.7V16h-3.3
			c2.6-2.9,4.4-5.6,4.9-7.5h-4.6c-0.3,0.8-0.8,1.8-1.5,2.8V8.7h-5.4V4.2h-4v4.5h-6.5v3.6h6.5V16h-8.4v3.5h10.2
			c-3.5,3.1-7.3,5.7-10.2,6.6v4.1c2.2-0.7,4.9-2.3,7.8-4.3h6.7c-1,1-2.6,2.6-2.9,2.9h-1.7v2.6c-4.3,0.4-8.3,0.6-9.9,0.7v3.9
			c1.6,0,5.6-0.4,9.9-0.8v5.4h-5.8v4h5.6c3.1,0,4.5-1.9,4.4-3.5v-6.4c3.8-0.4,7.1-0.9,8.1-1.2V30z M156.9,12.3h4.6
			c-0.9,1.2-2,2.5-3.2,3.7h-1.5V12.3z"/>
		<path class="st0" d="M178.7,32.5c3-5,4.7-11,5-18.1h2v-3.9h-12.1c0.4-2.3,0.8-4.6,1-6.2H170c-0.2,3.4-1.5,15.4-4.6,18.3v6.7
			c2-1.6,3.6-4.1,4.9-7c0.7,3.7,1.9,7.1,3.5,10.1c-2.1,2.8-4.9,5.8-8.6,7.7v4.7c4.4-1.9,8.1-5.1,11-8.6c2.8,3.8,6.3,7,10.3,8.6v-4.6
			C183.4,38.6,180.8,35.7,178.7,32.5z M173.7,14.4h5.8c-0.2,4.3-1.1,9.1-3.1,13.5C174.7,23.9,173.8,19.3,173.7,14.4z"/>
	</g>
	<path class="st0" d="M131.9,40.6c1.3-4.1,4.1-20.9,4.2-26h5.3v-4.1h-16.8V4.2h-4.5v6.3h-17.2v4.1h5.8c1.3,4.6,3.5,21.4,3.4,26H102
		v4.1h40.4v-4.1H131.9z M113.3,14.6h18.2c0,5-2.9,21.9-4.2,26h-10.7C116.8,36,114.6,19.2,113.3,14.6"/>
</g>
<g id="mark">
	<g>
		<path class="st1" d="M40.5,0C62.8,0,81,18.2,81,40.5C81,62.8,62.8,81,40.5,81C18.2,81,0,62.8,0,40.5C0,18.2,18.2,0,40.5,0
			 M40.5,12.6c-15.4,0-27.9,12.5-27.9,27.9c0,15.4,12.5,27.9,27.9,27.9c15.4,0,27.9-12.5,27.9-27.9C68.4,25.1,55.9,12.6,40.5,12.6"
			/>
		<path class="st1" d="M59.8,23.2c-6.7,1.3-14.2-1.5-19.3-6.7c-5.1,5.2-12.6,8.1-19.3,6.7c-2.9,11.9-1.7,21.6,1.6,28.5
			c2.4,5,6.5,8.6,9.2,10.3c2.7,1.6,5.6,3.2,8.4,4.6c2.9-1.3,5.8-2.9,8.4-4.6c2.7-1.7,6.8-5.2,9.2-10.3
			C61.4,44.8,62.6,35.1,59.8,23.2 M40.5,20.2l6.6,4.1l-0.8,1.2l-1.3-0.8c-0.2,1.4-0.6,3.6-0.9,4.4h2.1v1.5H34.8V29h2.1
			c-0.2-0.8-0.6-2.9-0.8-4.4l-1.3,0.8l-0.8-1.2L40.5,20.2z M44.2,35.8c-1.4,0.3-2.7,0.8-3.7,1.5c-1-0.7-2.3-1.2-3.7-1.5v-3.1h7.5
			V35.8z M51.3,38.8v10.6c-3.5-1.4-7.5-0.9-10.4,0.5V38.7l0.4-0.2C43.9,36.7,48.2,36.3,51.3,38.8 M40.1,38.7v11.3
			c-2.9-1.4-6.9-1.9-10.4-0.5V38.8c3.1-2.6,7.4-2.2,10-0.4L40.1,38.7z M21.1,36.1c0-1.1,0-2.3,0.1-3.5h14.1v3
			c-2.1-0.1-4.3,0.4-6.2,1.8h-8.1C21.1,37,21.1,36.6,21.1,36.1 M21.2,38.8h7.1v5.7H22C21.6,42.8,21.4,40.9,21.2,38.8 M35.4,62.2
			c-0.8-0.5-1.7-1-2.5-1.5c-2.8-1.7-6.6-5.2-8.7-9.6c-0.7-1.4-1.4-3.2-1.9-5.2h6v5.9c2.1-1.5,4.7-2,7.1-1.7V62.2z M44.2,63
			c-1.2,0.7-2.5,1.3-3.7,1.9c-1.2-0.6-2.5-1.2-3.7-1.9V50.2c1.4,0.3,2.7,0.8,3.7,1.5c1-0.7,2.3-1.2,3.7-1.5V63z M56.8,51.1
			c-2.1,4.4-5.8,7.9-8.7,9.6c-0.8,0.5-1.7,1-2.5,1.5V50c2.4-0.2,5,0.2,7.1,1.7v-5.9h6C58.1,47.9,57.4,49.7,56.8,51.1 M59,44.5h-6.3
			v-5.7h7.1C59.6,40.9,59.4,42.8,59,44.5 M51.8,37.5c-1.9-1.4-4.1-1.9-6.2-1.8v-3h14.1c0.1,1.2,0.1,2.4,0.1,3.5c0,0.4,0,0.9,0,1.3
			H51.8z"/>
		<path class="st1" d="M42.5,29c0.3-0.9,0.8-4,1-5.2l-3-1.9l-3,1.9c0.1,1.2,0.7,4.3,1,5.2H42.5z"/>
		<path class="st1" d="M31.9,41.3C32,41.3,32,41.3,31.9,41.3C32,41.2,32,41.2,31.9,41.3c0-0.1-0.1-0.1-0.2-0.1
			c-0.1,0-0.2-0.1-0.2-0.2c0-0.2,0-0.4,0-0.8v-1.4c0,0,0-0.1,0-0.1c0,0,0.1,0,0.1,0c0.1,0,0.2,0,0.3,0.1c0.2,0.2,0.2,0.4,0.2,0.5
			c0,0.4-0.2,0.6-0.4,0.6c-0.1,0-0.1,0-0.1,0c0,0,0,0,0,0c0,0,0.1,0,0.1,0c0.6,0,0.8-0.4,0.8-0.9c0-0.2-0.1-0.3-0.2-0.4
			c-0.2-0.2-0.4-0.2-0.6-0.2c-0.2,0-0.4,0-0.5,0c-0.1,0-0.4,0-0.6,0c-0.1,0-0.1,0-0.1,0c0,0,0,0,0.1,0c0.1,0,0.1,0,0.2,0
			c0.1,0,0.2,0.1,0.2,0.2c0,0.1,0,0.2,0,0.7v0.6c0,0.3,0,0.6,0,0.8c0,0.1,0,0.2-0.1,0.2c0,0-0.1,0-0.1,0c0,0-0.1,0-0.1,0
			c0,0,0,0,0.1,0c0.2,0,0.4,0,0.5,0C31.4,41.3,31.6,41.3,31.9,41.3"/>
		<path class="st1" d="M32.4,45.4c-0.2,0-0.4,0-0.5,0c-0.1,0-0.4,0-0.6,0c-0.1,0-0.1,0-0.1,0c0,0,0,0,0.1,0c0.1,0,0.1,0,0.2,0
			c0.1,0,0.2,0.1,0.2,0.2c0,0.1,0,0.2,0,0.8V47c0,0.3,0,0.6,0,0.8c0,0.1,0,0.2-0.1,0.2c0,0-0.1,0-0.1,0c0,0-0.1,0-0.1,0
			c0,0,0,0,0.1,0c0.2,0,0.4,0,0.5,0c0.1,0,0.4,0,0.6,0c0,0,0.1,0,0.1,0c0,0,0,0-0.1,0c-0.1,0-0.2,0-0.2,0c-0.1,0-0.1-0.1-0.1-0.2
			c0-0.1,0-0.4,0-0.8v-1.4c0,0,0-0.1,0-0.1c0,0,0.1,0,0.1,0c0.1,0,0.2,0,0.3,0.1c0.2,0.2,0.2,0.4,0.2,0.5c0,0.4-0.2,0.6-0.4,0.6
			c-0.1,0-0.1,0-0.1,0c0,0,0,0,0.1,0c0,0,0.1,0,0.1,0c0.6,0,0.8-0.3,0.8-0.9c0-0.2-0.1-0.3-0.2-0.4C32.8,45.4,32.6,45.4,32.4,45.4"
			/>
		<path class="st1" d="M33.6,38.2c0.1,0,0.1,0,0.1,0c0.1,0,0.1,0.1,0.2,0.2c0,0.1,0,0.2,0,0.7v0.6c0,0.3,0,0.6,0,0.8
			c0,0.1,0,0.2-0.1,0.2c0,0-0.1,0-0.1,0c0,0-0.1,0-0.1,0c0,0,0,0,0.1,0c0.1,0,0.4,0,0.5,0c0.1,0,0.3,0,0.5,0c0.1,0,0.1,0,0.1,0
			c0,0,0,0,0,0c0,0-0.1,0-0.2,0c-0.1,0-0.1-0.1-0.1-0.2c0-0.2,0-0.4,0-0.8v0c0,0,0,0,0,0l0.2,0c0,0,0,0,0.1,0c0,0.1,0.2,0.3,0.4,0.5
			c0.2,0.3,0.3,0.4,0.5,0.5c0.1,0,0.2,0.1,0.4,0.1h0.4c0,0,0.1,0,0.1,0c0,0,0,0,0,0c0,0-0.1,0-0.1,0c-0.1,0-0.2,0-0.4-0.2
			c-0.2-0.2-0.5-0.5-0.8-0.9c0.4-0.3,0.5-0.5,0.5-0.8c0-0.2-0.1-0.4-0.2-0.5c-0.2-0.1-0.5-0.1-0.7-0.1c-0.1,0-0.4,0-0.5,0
			C34,38.1,33.8,38.1,33.6,38.2C33.6,38.1,33.5,38.1,33.6,38.2C33.5,38.2,33.5,38.2,33.6,38.2 M34.4,38.3
			C34.4,38.3,34.4,38.3,34.4,38.3c0.1-0.1,0-0.1,0.1-0.1c0.2,0,0.5,0.1,0.5,0.7c0,0.3-0.1,0.4-0.2,0.5c-0.1,0-0.1,0.1-0.2,0.1
			c-0.1,0-0.1,0-0.2,0c0,0,0,0,0-0.1V38.3z"/>
		<path class="st1" d="M44.6,48.2C44.6,48.2,44.5,48.2,44.6,48.2c-0.2,0-0.3-0.1-0.5-0.3c-0.2-0.2-0.5-0.5-0.8-0.9
			c0.4-0.3,0.5-0.5,0.5-0.8c0-0.2-0.1-0.4-0.2-0.5c-0.2-0.1-0.5-0.2-0.7-0.2c-0.1,0-0.4,0-0.5,0c-0.1,0-0.3,0-0.5,0c0,0-0.1,0-0.1,0
			c0,0,0,0,0.1,0c0,0,0.1,0,0.1,0c0.1,0,0.1,0.1,0.2,0.2c0,0.1,0,0.2,0,0.8v0.6c0,0.3,0,0.6,0,0.8c0,0.1,0,0.2-0.1,0.2
			c0,0-0.1,0-0.1,0c0,0-0.1,0-0.1,0c0,0,0,0,0.1,0c0.1,0,0.4,0,0.5,0c0.1,0,0.3,0,0.5,0c0,0,0.1,0,0.1,0c0,0,0,0,0,0
			c0,0-0.1,0-0.2,0c-0.1,0-0.1-0.1-0.1-0.2c0-0.2,0-0.4,0-0.8v-0.1c0,0,0,0,0,0l0.2,0c0,0,0,0,0.1,0c0,0.1,0.2,0.3,0.4,0.5
			c0.2,0.3,0.3,0.4,0.5,0.5c0.1,0.1,0.2,0.1,0.4,0.1L44.6,48.2C44.6,48.2,44.6,48.2,44.6,48.2C44.6,48.2,44.6,48.2,44.6,48.2
			 M43.1,46.9C43,46.9,43,47,42.9,47c-0.1,0-0.1,0-0.2,0c0,0,0,0,0-0.1v-1.1c0,0,0,0,0,0c0,0,0,0,0.1,0c0.2,0,0.5,0.1,0.5,0.6
			C43.3,46.7,43.2,46.8,43.1,46.9"/>
		<path class="st1" d="M37.9,38.6c-0.9,0-1.2,0.8-1.2,1.4c0,0.6,0.4,1.4,1.2,1.4c0.8,0,1.2-0.6,1.2-1.5
			C39.2,39.1,38.7,38.6,37.9,38.6 M38,41.2c-0.5,0-0.8-0.6-0.8-1.3c0-0.9,0.3-1.1,0.6-1.1c0.4,0,0.7,0.5,0.7,1.3
			C38.6,41,38.2,41.2,38,41.2"/>
		<path class="st1" d="M49,38.6c-0.9,0-1.2,0.8-1.2,1.4c0,0.6,0.3,1.4,1.2,1.4c0.8,0,1.2-0.6,1.2-1.5C50.2,39.1,49.7,38.6,49,38.6
			 M49.1,41.2c-0.5,0-0.8-0.6-0.8-1.3c0-0.9,0.3-1.1,0.6-1.1c0.4,0,0.7,0.5,0.7,1.3C49.7,41,49.2,41.2,49.1,41.2"/>
		<path class="st1" d="M41.9,38.7c0,0,0.1,0,0.1,0c0.1,0,0.1,0.1,0.1,0.2c0,0.1,0,0.2,0,0.7v0.6c0,0.3,0,0.6,0,0.8
			c0,0.1,0,0.2-0.1,0.2c0,0-0.1,0-0.1,0c0,0,0,0,0,0c0,0,0,0,0.1,0c0.1,0,0.3,0,0.4,0c0.2,0,0.4,0,0.7,0c0.6,0,0.9-0.3,1-0.4
			c0.2-0.2,0.3-0.5,0.3-1c0-0.4-0.2-0.7-0.3-0.9c-0.3-0.4-0.9-0.4-1.3-0.4c-0.2,0-0.4,0-0.5,0C42.3,38.6,42.1,38.6,41.9,38.7
			C41.9,38.6,41.9,38.6,41.9,38.7C41.9,38.7,41.9,38.7,41.9,38.7 M42.7,39.6v-0.7c0,0,0-0.1,0-0.1c0,0,0.1,0,0.2,0
			c0.2,0,0.5,0,0.8,0.4c0.1,0.1,0.3,0.4,0.3,0.9c0,0.4-0.1,0.7-0.2,0.9c-0.2,0.2-0.3,0.3-0.6,0.3c-0.2,0-0.3-0.1-0.4-0.1
			c0,0,0-0.2,0-0.3V40V39.6z"/>
		<path class="st1" d="M46.9,40.7c0-0.1,0-0.3,0-0.4c0,0,0-0.1,0-0.1c0,0,0,0,0,0.1c0,0.1-0.1,0.2-0.2,0.3c-0.1,0-0.3,0-0.4,0
			c-0.4,0-0.5-0.1-0.5-0.3v-0.5v-0.3c0,0,0,0,0,0c0.1,0,0.5,0,0.6,0c0.1,0,0.2,0.1,0.2,0.1c0,0,0,0.1,0,0.1c0,0,0,0,0,0
			c0,0,0,0,0-0.1c0,0,0-0.2,0-0.2c0-0.2,0-0.2,0-0.3c0,0,0,0,0,0c0,0,0,0-0.1,0c0,0-0.1,0-0.2,0.1c-0.1,0-0.5,0-0.6,0c0,0,0,0,0,0
			v-0.9c0,0,0,0,0,0c0.1,0,0.5,0,0.6,0c0.2,0,0.2,0.1,0.3,0.1c0,0,0,0.1,0,0.1c0,0,0,0.1,0,0.1c0,0,0,0,0,0c0,0,0-0.2,0-0.2
			c0-0.2,0-0.2,0-0.2c0,0,0,0,0,0c0,0,0,0-0.1,0c0,0-0.1,0-0.2,0h-1c-0.1,0-0.4,0-0.6,0c-0.1,0-0.1,0-0.1,0c0,0,0,0,0.1,0
			c0.1,0,0.1,0,0.1,0c0.1,0,0.2,0.1,0.2,0.2c0,0.1,0,0.2,0,0.7v0.6c0,0.3,0,0.6,0,0.8c0,0.1,0,0.2-0.1,0.2c0,0-0.1,0-0.1,0
			c-0.1,0-0.1,0-0.1,0c0,0,0,0,0.1,0c0.2,0,0.4,0,0.5,0c0.2,0,0.5,0,1.1,0C46.9,40.8,46.9,40.8,46.9,40.7"/>
		<path class="st1" d="M36.7,42.1c0.1,0,0.5,0,0.6,0c0.2,0,0.2,0.1,0.3,0.1c0,0,0,0.1,0,0.1c0,0,0,0.1,0,0.1c0,0,0,0,0,0
			c0,0,0-0.2,0-0.2c0-0.2,0-0.2,0-0.2c0,0,0,0,0,0c0,0,0,0-0.1,0c0,0-0.1,0-0.2,0c-0.1,0-0.8,0-1,0c-0.1,0-0.4,0-0.6,0
			c-0.1,0-0.1,0-0.1,0c0,0,0,0,0.1,0c0.1,0,0.1,0,0.2,0c0.1,0,0.2,0.1,0.2,0.2c0,0.1,0,0.2,0,0.7v0.6c0,0.3,0,0.6,0,0.7
			c0,0.1,0,0.2-0.1,0.2c0,0-0.1,0-0.1,0c-0.1,0-0.1,0-0.1,0c0,0,0,0,0.1,0c0.2,0,0.4,0,0.5,0c0.2,0,0.5,0,1.1,0c0.1,0,0.2,0,0.2-0.1
			c0-0.1,0.1-0.3,0.1-0.4c0,0,0-0.1,0-0.1c0,0,0,0,0,0.1c0,0.1-0.1,0.2-0.2,0.3c-0.1,0-0.3,0-0.4,0c-0.4,0-0.5-0.1-0.5-0.3
			c0-0.1,0-0.4,0-0.5v-0.3c0,0,0,0,0,0c0.1,0,0.5,0,0.6,0c0.1,0,0.2,0.1,0.2,0.1c0,0,0,0.1,0,0.1c0,0,0,0,0,0c0,0,0,0,0-0.1
			c0,0,0-0.2,0-0.2c0-0.2,0-0.2,0-0.3c0,0,0,0,0,0c0,0,0,0-0.1,0.1c0,0-0.1,0-0.2,0c-0.1,0-0.5,0-0.6,0c0,0,0,0,0,0L36.7,42.1
			C36.7,42.1,36.7,42.1,36.7,42.1"/>
		<path class="st1" d="M45.1,42.4C45.1,42.4,45.1,42.4,45.1,42.4C45.2,42.4,45.2,42.4,45.1,42.4c0.1-0.1,0.1-0.3,0.1-0.4
			c0,0,0-0.1,0-0.1c0,0-0.1,0-0.3,0h-1.4c-0.1,0-0.3,0-0.4,0c-0.1,0-0.1,0-0.2,0c0,0,0,0,0,0.1c0,0-0.1,0.4-0.1,0.4c0,0,0,0.1,0,0.1
			c0,0,0,0,0,0c0,0,0-0.1,0.1-0.1c0-0.1,0.1-0.1,0.3-0.1l0.5,0v1.5c0,0.3,0,0.6,0,0.7c0,0.1,0,0.2-0.1,0.2c0,0-0.1,0-0.1,0
			c0,0-0.1,0-0.1,0c0,0,0,0,0.1,0c0.1,0,0.4,0,0.5,0c0.1,0,0.3,0,0.6,0c0,0,0.1,0,0.1,0c0,0,0,0-0.1,0c0,0-0.1,0-0.2,0
			c-0.1,0-0.1-0.1-0.1-0.2c0-0.1,0-0.4,0-0.8v-1.5l0.4,0C45,42.1,45.1,42.2,45.1,42.4L45.1,42.4z"/>
		<path class="st1" d="M39.1,45.5c0,0-0.1,0-0.3,0h-1.4c-0.1,0-0.3,0-0.4,0c-0.1,0-0.1,0-0.1,0c0,0,0,0,0,0.1c0,0-0.1,0.4-0.1,0.4
			c0,0,0,0.1,0,0.1c0,0,0,0,0,0c0,0,0-0.1,0.1-0.1c0.1-0.1,0.1-0.1,0.3-0.1l0.5,0v1.4c0,0.3,0,0.6,0,0.8c0,0.1,0,0.2-0.1,0.2
			c0,0-0.1,0-0.1,0c0,0-0.1,0-0.1,0c0,0,0,0,0.1,0c0.1,0,0.4,0,0.5,0c0.1,0,0.3,0,0.6,0c0,0,0.1,0,0.1,0c0,0,0,0-0.1,0
			c-0.1,0-0.1,0-0.2,0c-0.1,0-0.1-0.1-0.1-0.2c0-0.2,0-0.4,0-0.8v-1.4l0.4,0c0.3,0,0.4,0.1,0.4,0.2l0,0c0,0.1,0,0.1,0,0.1
			c0,0,0,0,0-0.1C39.1,45.9,39.1,45.7,39.1,45.5C39.1,45.6,39.1,45.5,39.1,45.5"/>
		<path class="st1" d="M46.2,47.8c-0.1,0-0.1,0-0.2,0c-0.1,0-0.1-0.1-0.1-0.2c0-0.1,0-0.4,0-0.8v-0.6c0-0.5,0-0.6,0-0.7
			c0-0.1,0-0.2,0.1-0.2c0,0,0.1,0,0.1,0c0,0,0.1,0,0.1,0c0,0,0,0-0.1,0c-0.1,0-0.4,0-0.5,0c-0.1,0-0.4,0-0.5,0c-0.1,0-0.1,0-0.1,0
			c0,0,0,0,0.1,0c0,0,0.1,0,0.1,0c0.1,0,0.1,0.1,0.1,0.2c0,0.1,0,0.2,0,0.7v0.6c0,0.3,0,0.6,0,0.8c0,0.1,0,0.2-0.1,0.2
			c0,0-0.1,0-0.1,0c0,0-0.1,0-0.1,0c0,0,0,0,0.1,0c0.1,0,0.4,0,0.5,0C45.7,47.8,46,47.8,46.2,47.8C46.2,47.8,46.3,47.8,46.2,47.8
			C46.3,47.8,46.2,47.8,46.2,47.8"/>
		<path class="st1" d="M36.4,47.8c0,0-0.1,0-0.1,0c-0.1,0-0.2-0.1-0.3-0.4c-0.2-0.5-0.8-2-0.9-2.2c0-0.1-0.1-0.1-0.1-0.1
			c0,0-0.1,0-0.1,0.1L34,47.5c-0.1,0.2-0.1,0.3-0.3,0.3c0,0-0.1,0-0.1,0c0,0,0,0,0,0c0,0,0,0,0.1,0c0.2,0,0.4,0,0.4,0
			c0.1,0,0.3,0,0.4,0c0,0,0.1,0,0.1,0c0,0,0,0-0.1,0h-0.1c-0.1,0-0.1,0-0.1-0.1c0,0,0-0.1,0.1-0.2l0.1-0.4h0.9l0.2,0.6
			c0,0,0,0.1,0,0.1c0,0,0,0,0,0c0,0,0,0,0.1,0c0.3,0,0.6,0,0.7,0C36.4,47.8,36.4,47.8,36.4,47.8C36.4,47.8,36.4,47.8,36.4,47.8
			 M34.8,45.9C34.8,45.9,34.8,45.9,34.8,45.9C34.9,45.9,34.9,45.9,34.8,45.9l0.4,0.8l0.1,0.2h-0.8l0.1-0.2L34.8,45.9z"/>
		<path class="st1" d="M49.7,48c0,0-0.1,0-0.2,0c-0.1,0-0.2-0.1-0.3-0.4c-0.2-0.5-0.8-2-0.9-2.2c0-0.1-0.1-0.1-0.1-0.1
			c0,0-0.1,0-0.1,0.1l-0.9,2.2c-0.1,0.2-0.1,0.3-0.3,0.3c0,0-0.1,0-0.1,0c0,0,0,0,0,0c0,0,0,0,0.1,0c0.2,0,0.4,0,0.4,0
			c0.1,0,0.3,0,0.4,0c0,0,0.1,0,0.1,0c0,0,0,0-0.1,0h-0.1c-0.1,0-0.1,0-0.1-0.1c0,0,0-0.1,0.1-0.2l0.1-0.3h0.9l0.2,0.6
			c0,0,0,0.1,0,0.1c0,0-0.1,0-0.1,0c0,0,0,0,0.1,0c0.3,0,0.6,0,0.7,0C49.7,48,49.7,48,49.7,48C49.7,48,49.7,48,49.7,48 M48.1,46.1
			C48.1,46.1,48.1,46.1,48.1,46.1C48.1,46.1,48.1,46.1,48.1,46.1l0.4,0.8l0.1,0.2h-0.8l0.1-0.2L48.1,46.1z"/>
		<path class="st2" d="M10.5,42.4c0,0-3.2,0.1-3.5,0.1c0-0.1,0-0.4,0-0.4c0-0.5,0.2-0.9,1.7-2l1.7-1.1l0-1.7l-0.2,0.2l-0.1,0.1
			c-0.6,0.5-0.9,0.7-1.4,1l0,0c-0.9,0.6-1.6,1-2,1.7c-0.4-0.8-1.1-1.2-2-1.2c-1.5,0-2.4,1.1-2.3,2.8l0,2.2l8.3-0.1L10.5,42.4z
			 M3.5,41.9c0-1.2,0.6-1.4,1-1.4c0.3,0,0.6,0.1,0.8,0.3c0.2,0.2,0.4,0.6,0.4,1.1c0,0,0,0.4,0,0.6c-0.2,0-2,0-2.2,0
			C3.5,42.3,3.5,41.9,3.5,41.9L3.5,41.9z"/>
		<polygon class="st2" points="2.8,34 2.7,34.2 2.5,35.4 10.7,36.7 10.9,35.3 		"/>
		<path class="st2" d="M13.7,26.6l-0.1-0.1c0,0-5.4,2.6-5.6,2.7c-0.1-0.2-2.5-4.7-2.5-4.7l-0.1,0.3L5,26.2c0,0,1.9,3.6,2.2,4.1
			c-0.6-0.2-3.2-1.2-3.2-1.2l-0.5,1.3l7.8,2.8l0.5-1.3c0,0-3-1.1-3.5-1.3c0.5-0.3,4.8-2.4,4.8-2.4L13.7,26.6z"/>
		<path class="st2" d="M17.8,20.5c0,0-5.8,1.3-6.1,1.3c-0.1-0.3-1.3-5.2-1.3-5.2l-0.2,0.3l-0.8,1.3c0,0,1,3.9,1.1,4.5
			c-0.5-0.3-2.9-1.9-2.9-1.9L6.8,22l6.9,4.6l0.8-1.2c0,0-2.7-1.8-3.1-2.1c0.6-0.1,5.3-1.2,5.3-1.2L17.8,20.5z"/>
		<path class="st2" d="M16.6,15.9c0-0.1-0.6-5-0.6-5l-0.2,0.2l-1,1c0,0,0.4,3,0.4,3.4c-0.3,0-3.4-0.4-3.4-0.4l-1.2,1.2
			c0,0,4.9,0.5,5,0.6c0.1,0.1,3.1,3,3.1,3l1-1C19.7,18.9,16.7,15.9,16.6,15.9"/>
		<path class="st2" d="M26.2,9.2c-0.6-1-1.5-1.6-2.6-1.9c-1.1-0.3-2.3,0-3.4,0.6c-2.1,1.3-2.8,3.9-1.5,5.9c1.3,2.1,3.9,2.6,6,1.3
			c1.1-0.7,1.8-1.7,2.1-2.8C27,11.3,26.8,10.1,26.2,9.2 M25.4,12.1c-0.2,0.8-0.7,1.4-1.4,1.9c-0.7,0.4-1.5,0.6-2.3,0.4
			c-0.7-0.2-1.4-0.6-1.8-1.3c-0.4-0.7-0.6-1.5-0.4-2.2c0.2-0.7,0.7-1.4,1.4-1.9c0.7-0.4,1.5-0.6,2.3-0.4c0.7,0.2,1.4,0.6,1.8,1.3
			C25.4,10.6,25.5,11.4,25.4,12.1"/>
		<path class="st2" d="M38.4,7.1l-0.9-4.9l-0.1,0l-1.3,0.2l0.8,4.7C37.1,8,37,8.5,36.7,8.8c-0.2,0.3-0.6,0.7-1.6,0.9
			c-0.7,0.1-1.2,0-1.7-0.3c-0.4-0.3-0.5-0.6-0.7-1.4l-0.8-4.8l-1.4,0.2l0.9,5c0.4,2.4,2.4,2.9,4,2.6c1.2-0.2,2.1-0.7,2.6-1.4
			C38.4,8.9,38.5,8.1,38.4,7.1"/>
		<path class="st2" d="M47.1,2.7c0,0-0.6,5.2-0.6,5.9C46.1,8.1,42,2.1,42,2.1L40.8,2l0,0.1l-0.9,8.1l1.4,0.1c0,0,0.6-5.2,0.6-5.9
			c0.4,0.6,4.5,6.4,4.5,6.4l1.2,0.1l0.9-8.2L47.1,2.7z"/>
		<polygon class="st2" points="51.6,3.9 51.6,4 49.1,11.7 50.4,12.2 53,4.3 		"/>
		<path class="st2" d="M59.9,7.4c0,0-4,3.4-4.5,3.8c0-0.6,0.4-5.8,0.4-5.8l-1.3-0.7l0,0.2l-0.6,8.8l0.4,0.2l6.9-5.8L59.9,7.4z"/>
		<path class="st2" d="M65.5,13.2l0.8-1l-3.8-3l-0.1,0.1l-5.1,6.4l3.9,3.1l0.8-1c0,0-2.5-2-2.7-2.2c0.1-0.2,1.2-1.5,1.4-1.7
			c0.2,0.2,2.6,2,2.6,2l0.8-1c0,0-2.4-1.9-2.6-2c0.1-0.2,1.2-1.5,1.3-1.7C63,11.2,65.5,13.2,65.5,13.2"/>
		<path class="st2" d="M69.9,16l-1.4-1.7l-0.1,0.1l-6.3,5.1l0.9,1.1c0,0,2.5-2,2.7-2.2c0.1,0.1,0.2,0.3,0.2,0.3
			c0.2,0.2,0.3,0.4,0.3,0.8c0,0.4-0.1,0.9-0.4,1.8l-0.6,1.9l1.1,1.3l0.1-0.4c0.2-0.8,0.3-1.1,0.5-1.6l0-0.1c0.4-1,0.6-1.7,0.6-2.5
			c0,0,0,0,0-0.1c0.8,0.4,1.6,0.3,2.3-0.3C70.9,18.7,71,17.3,69.9,16 M68.5,16.2c0.1,0.2,0.4,0.5,0.4,0.5c0.3,0.4,0.5,0.8,0.5,1
			c0,0.3-0.2,0.6-0.4,0.7c-0.3,0.2-0.5,0.3-0.8,0.3c-0.3,0-0.7-0.3-1-0.7c0,0-0.2-0.3-0.4-0.5C66.9,17.5,68.3,16.4,68.5,16.2"/>
		<path class="st2" d="M74.9,23.4c-0.7-1.4-2-1.9-3.2-1.3c-1.1,0.6-1.2,1.8-1.3,2.9c-0.1,0.9-0.1,1.7-0.7,2c-0.2,0.1-0.4,0.1-0.6,0
			c-0.2-0.1-0.5-0.2-0.7-0.7c-0.3-0.7-0.3-1.5,0.1-2.3l0.2-0.4l-1.7,0.9l0,0.1c-0.2,0.9,0,1.6,0.4,2.4c0.3,0.6,0.8,1,1.4,1.2
			c0.6,0.2,1.2,0.1,1.8-0.2c1.4-0.7,1.4-2,1.5-3.1c0-0.8,0.1-1.5,0.6-1.8c0.4-0.2,0.9,0,1.2,0.6c0.3,0.6,0.3,1.2,0.1,1.9l-0.1,0.3
			l1.5-0.8l0-0.1C75.2,24.6,75.1,23.9,74.9,23.4"/>
		<polygon class="st2" points="76.6,27.9 76.5,27.9 68.8,30.5 69.2,31.8 77.1,29.2 		"/>
		<path class="st2" d="M77.7,30.8l-0.1,0L76.4,31c0,0,0.4,2.5,0.5,2.7c-0.3,0-6.9,1.1-6.9,1.1l0.2,1.4c0,0,6.6-1.1,6.9-1.1
			c0,0.3,0.5,2.7,0.5,2.7l1.3-0.2L77.7,30.8z"/>
		<path class="st2" d="M78.9,38.2l-0.2,0.2c0,0-3.8,2.7-3.8,2.8c-0.1,0-4.3-0.2-4.3-0.2l-0.1,1.4c0,0,4.2,0.2,4.3,0.2
			c0.1,0.1,3.8,3.3,3.8,3.3l0.1-1.7c0,0-2.3-2-2.6-2.2c0.3-0.2,2.7-2,2.7-2L78.9,38.2z"/>
		<path class="st2" d="M8.5,48.6c0,0.7-0.6,1.2-1.3,1.2c-0.7,0-1.3-0.6-1.3-1.2c0-0.7,0.6-1.3,1.3-1.3C8,47.3,8.5,47.9,8.5,48.6"/>
		<path class="st2" d="M75,48.6c0,0.7-0.6,1.2-1.3,1.2c-0.7,0-1.2-0.6-1.2-1.2c0-0.7,0.6-1.3,1.2-1.3C74.4,47.3,75,47.9,75,48.6"/>
		<path class="st2" d="M15.4,57.2c0,0-3.7-0.7-4-0.7c0.1-0.3,1.6-3.8,1.6-3.8l-0.6-1.1l-0.1,0.1l-7.1,3.9l0.7,1.3
			c0,0,4.7-2.6,5.2-2.9c-0.2,0.6-1.4,3.4-1.4,3.4l0.2,0.3c0,0,3,0.5,3.6,0.6C12.7,58.5,8.1,61,8.1,61l0.7,1.3l7.3-4L15.4,57.2z"/>
		<path class="st2" d="M19,61.5l-2.3-2.3l-0.1,0.1L10.9,65l2.3,2.3c0.9,0.9,2,1.4,3.1,1.4c1.1,0,2.1-0.4,2.9-1.2
			c0.8-0.8,1.2-1.9,1.2-2.9C20.5,63.5,20,62.4,19,61.5 M18,62.3c0.8,0.8,1.1,1.5,1.1,2.2c0,0.8-0.4,1.4-0.9,2
			c-0.7,0.7-2.4,1.5-4.2-0.2c0,0-0.9-0.9-1.2-1.2c0.2-0.2,3.8-3.8,4-4C17,61.3,18,62.3,18,62.3"/>
		<path class="st2" d="M28.3,68.8c-0.7-1-1.4-1.6-2.1-2c-1.1-0.7-2.4-0.8-3.5-0.5c-1.1,0.3-2,1-2.6,2c-0.5,0.9-0.7,2.1-0.4,3.1
			c0.3,1.1,1,2,2.2,2.7c1.2,0.7,2.1,0.8,2.9,0.9l0.1,0l0.8-1.4l-0.3,0c-1,0-2-0.2-2.8-0.6c-1.6-0.9-2.1-2.6-1.2-4.1
			c0.4-0.7,1-1.2,1.7-1.4c0.8-0.2,1.6-0.1,2.3,0.4c0.8,0.5,1.4,1.1,1.9,2l0.1,0.2L28.3,68.8L28.3,68.8z"/>
		<path class="st2" d="M35.9,71c-1-0.7-1.7-1.2-2.5-1.4c-2.5-0.7-4.9,0.6-5.5,3c-0.3,1-0.1,2.2,0.4,3.1c0.6,1,1.5,1.7,2.8,2.1
			c1.3,0.4,2.3,0.2,3,0.1l0.1,0l0.4-1.5l-0.2,0.1c-1,0.3-2,0.4-2.8,0.1c-1.8-0.5-2.7-1.9-2.2-3.6c0.4-1.6,2-2.5,3.7-2
			c0.9,0.2,1.6,0.7,2.4,1.5l0.2,0.2L35.9,71L35.9,71z"/>
		<path class="st2" d="M43.8,76.7c-0.9,0.6-1.8,0.9-2.7,0.9c-1.8,0-3.1-1.2-3.1-2.9c0-0.8,0.3-1.5,0.8-2c0.6-0.6,1.4-0.9,2.2-0.9
			c0.9,0,1.7,0.3,2.7,0.8l0.2,0.1l0-1.6l-0.1,0c-1.1-0.5-1.9-0.7-2.8-0.7c-1.3,0-2.5,0.4-3.3,1.3c-0.8,0.8-1.2,1.9-1.3,3.1
			c0,1,0.4,2.1,1.2,2.9c0.8,0.8,1.9,1.3,3.2,1.3c1.4,0,2.3-0.3,3-0.7l0.1,0l0-1.6L43.8,76.7z"/>
		<path class="st2" d="M51.4,76c0,0-3.3,0.7-3.5,0.8c-0.1-0.3-1.5-6.8-1.5-6.8l-0.1,0l-1.3,0.3l1.8,8.1l4.9-1.1L51.4,76z"/>
		<path class="st2" d="M56.1,70.7c0.1-0.2,1.2-5,1.2-5l-0.3,0.1l-1.3,0.6c0,0-0.8,3.4-0.9,3.7c-0.3-0.1-3.5-1.6-3.5-1.6l-1.6,0.8
			c0,0,4.5,2.1,4.7,2.1c-0.1,0.2-1.3,5.4-1.3,5.4l1.6-0.8c0,0,0.9-3.8,1-4.1c0.3,0.1,3.8,1.7,3.8,1.7l1.6-0.8
			C61.1,73.1,56.3,70.8,56.1,70.7"/>
		<path class="st2" d="M69.2,66.2c0,0-5.3-0.8-5.5-0.9c0-0.2-0.2-5.2-0.2-5.2l-0.2,0.2l-1.1,1c0,0,0.1,3.5,0.2,3.8
			c-0.3,0-3.8-0.6-3.8-0.6l-1.3,1.2c0,0,4.9,0.7,5.1,0.8c0,0.2,0.2,5.6,0.2,5.6l1.3-1.2c0,0-0.1-3.9-0.1-4.2
			c0.3,0.1,4.1,0.6,4.1,0.6L69.2,66.2z"/>
		<polygon class="st2" points="64.9,58 64.8,58.1 64,59.2 70.6,64.2 71.5,63 		"/>
		<path class="st2" d="M69,50.7l-0.1,0.2L68.3,52c0,0,3.4,4,3.8,4.5c-0.6,0-5.9-0.4-5.9-0.4l-0.7,1.3l9.1,0.6l0.2-0.4L69,50.7z"/>
	</g>
</g>
</svg>
